<?xml version="1.0" standalone="no"?>
<!DOCTYPE svg PUBLIC "-//W3C//DTD SVG 20010904//EN"
 "http://www.w3.org/TR/2001/REC-SVG-20010904/DTD/svg10.dtd">
<svg version="1.0" xmlns="http://www.w3.org/2000/svg"
 width="340.000000pt" height="340.000000pt" viewBox="0 0 340.000000 340.000000"
 preserveAspectRatio="xMidYMid meet">

<g transform="translate(0.000000,340.000000) scale(0.100000,-0.100000)"
fill="#000000" stroke="none">
<path d="M1916 3043 c-14 -15 -4 -83 20 -132 15 -28 28 -50 31 -47 3 2 0 14
-7 26 -6 11 -8 30 -5 40 4 14 2 20 -8 20 -14 0 -27 40 -27 79 0 14 2 14 10 1
6 -9 10 -10 10 -3 0 15 -15 25 -24 16z"/>
<path d="M2220 2995 c-14 -8 -32 -14 -41 -15 -9 0 -22 -7 -30 -16 -7 -8 -31
-25 -53 -36 -23 -11 -45 -27 -49 -34 -4 -8 -14 -14 -22 -14 -8 0 -19 -18 -25
-41 -6 -22 -28 -64 -48 -92 -33 -45 -37 -49 -40 -29 -2 13 1 29 7 36 12 14 12
78 0 70 -4 -2 -12 16 -18 41 -7 28 -17 45 -26 45 -8 0 -15 7 -15 15 0 9 -8 28
-17 43 l-18 26 -6 -54 c-5 -45 -3 -60 12 -82 21 -30 24 -54 9 -63 -20 -13 -11
-55 15 -67 32 -15 43 -53 21 -77 -9 -10 -16 -28 -16 -40 0 -12 -4 -19 -10 -16
-6 4 -10 -14 -10 -48 0 -59 -24 -141 -49 -171 -15 -18 -15 -18 6 -7 60 31 99
129 83 211 -12 60 -12 60 3 60 6 0 25 23 42 51 26 43 101 109 126 109 4 0 10
7 13 16 4 10 2 13 -7 8 -9 -6 -9 -4 1 8 7 9 26 21 42 28 16 7 27 17 24 22 -8
13 66 74 86 70 13 -2 13 -1 1 7 -11 7 -6 13 22 25 20 8 37 17 37 20 0 10 -24
6 -50 -9z"/>
<path d="M1971 2959 c7 -14 10 -46 7 -83 -5 -59 -5 -60 7 -22 6 21 23 49 38
62 32 27 35 39 7 24 -11 -6 -20 -7 -20 -2 0 6 -12 17 -26 27 -25 16 -25 16
-13 -6z"/>
<path d="M1355 2705 c4 -16 8 -36 11 -43 2 -9 -4 -10 -23 -6 -26 7 -26 7 8
-25 19 -18 27 -29 20 -25 -9 5 -7 -4 6 -22 12 -16 28 -45 36 -64 l16 -35 -6
35 c-2 19 -9 48 -14 64 -5 16 -9 46 -9 66 0 26 -7 43 -26 61 l-26 24 7 -30z"/>
<path d="M2085 2625 c4 -46 1 -80 -8 -100 l-14 -30 -8 45 -8 45 -9 -69 c-8
-67 -10 -71 -61 -117 -28 -27 -60 -48 -69 -49 -10 0 -18 -4 -18 -9 0 -14 35
-23 101 -24 32 -1 59 -6 59 -10 0 -13 70 -1 165 28 82 24 85 32 5 15 -94 -21
-96 -21 -80 -11 8 6 12 12 9 16 -3 3 -17 -4 -32 -15 -14 -11 -33 -20 -44 -20
-17 1 -17 1 2 12 10 6 30 24 43 40 13 15 32 28 42 28 11 0 25 9 33 21 8 11 26
22 38 24 13 2 38 8 54 14 17 6 48 14 70 18 33 5 36 7 15 11 -14 2 -30 8 -37
14 -15 12 -102 1 -151 -19 -19 -8 -36 -12 -39 -9 -3 3 -23 -4 -44 -15 -35 -17
-51 -15 -31 5 4 4 7 11 7 14 2 20 29 88 39 94 6 4 25 5 43 2 18 -3 41 -1 50 5
15 9 12 10 -17 11 -28 0 -32 3 -20 11 12 9 11 10 -7 6 -18 -4 -23 -1 -23 14 0
22 -11 24 -27 8 -9 -9 -13 -5 -18 17 -12 54 -14 49 -10 -21z"/>
<path d="M1540 2635 c1 -26 2 -28 11 -12 8 14 8 22 0 30 -8 8 -11 3 -11 -18z"/>
<path d="M1588 2632 c-9 -4 -27 -20 -39 -36 l-23 -29 27 18 c26 17 28 16 73
-10 31 -18 56 -26 75 -23 19 3 26 1 20 -5 -6 -6 -5 -20 1 -38 6 -16 7 -44 4
-62 -4 -18 -7 -38 -8 -44 -1 -7 -3 -11 -6 -8 -3 2 -13 -7 -24 -20 -11 -14 -24
-25 -30 -25 -7 0 -2 10 10 23 12 13 22 29 22 36 0 8 -10 1 -22 -14 -20 -26
-22 -27 -35 -9 -7 10 -13 13 -13 5 0 -7 -7 -19 -16 -28 -14 -14 -17 -14 -37 4
-12 11 -49 35 -82 52 -32 18 -72 42 -88 53 -37 27 -44 18 -11 -15 15 -15 23
-27 18 -27 -5 -1 11 -12 36 -25 25 -13 39 -24 33 -25 -7 0 -13 -6 -13 -14 0
-15 51 -31 87 -27 16 1 28 -9 45 -39 13 -22 27 -40 31 -40 5 0 5 5 2 10 -3 6
-1 10 5 10 6 0 8 5 5 10 -10 16 11 12 25 -5 7 -8 18 -15 25 -15 7 0 27 -17 45
-37 17 -21 29 -30 26 -20 -4 14 1 17 27 17 32 1 32 1 -18 27 l-50 27 59 8 c66
9 92 22 45 24 -16 1 -29 -3 -29 -8 0 -5 -5 -6 -11 -2 -8 4 -3 12 12 20 22 13
21 13 -21 8 -43 -4 -44 -4 -23 11 12 8 29 35 38 59 16 42 16 48 1 98 -10 29
-17 56 -17 61 2 14 -43 51 -47 39 -2 -7 -8 -12 -14 -12 -6 0 -8 6 -5 14 3 7 0
19 -6 25 -15 15 -64 14 -70 -1 -4 -10 -6 -10 -6 0 -1 13 -7 14 -33 4z m77 -23
c11 -17 -1 -21 -15 -4 -8 9 -8 15 -2 15 6 0 14 -5 17 -11z m-128 -245 c-3 -3
-12 -4 -19 -1 -8 3 -5 6 6 6 11 1 17 -2 13 -5z"/>
<path d="M945 2500 c3 -6 23 -18 43 -29 81 -40 102 -56 100 -75 -2 -13 9 -28
31 -43 19 -13 30 -23 26 -23 -5 0 6 -16 25 -35 19 -19 29 -35 23 -35 -6 0 -16
7 -23 15 -13 16 -42 20 -54 8 -4 -4 -41 -8 -82 -9 -53 -2 -81 -7 -93 -18 -10
-9 -25 -16 -34 -16 -18 0 -77 -47 -77 -62 0 -6 16 -7 43 -2 23 4 63 7 89 6 26
-1 50 3 53 8 10 16 68 12 94 -7 14 -9 44 -16 72 -16 26 -1 46 -4 44 -7 -2 -4
14 -17 35 -31 22 -13 40 -28 40 -33 0 -5 -8 -2 -17 5 -10 7 -7 1 6 -14 14 -15
30 -27 38 -27 7 0 13 -3 13 -7 1 -12 49 -45 68 -47 29 -4 51 -90 51 -196 l0
-95 -21 40 c-11 22 -29 50 -40 61 -14 16 -17 29 -12 49 5 20 4 26 -5 21 -19
-12 -12 18 15 70 25 47 25 48 4 29 -35 -31 -68 -89 -72 -126 -4 -34 -4 -34
-15 -9 -10 22 -12 23 -13 5 -1 -15 -7 -9 -21 20 l-20 40 6 -40 5 -40 -15 28
c-21 36 -26 34 -15 -5 l10 -33 -21 25 c-26 32 -49 83 -49 109 0 11 -5 23 -11
27 -19 12 1 -108 27 -155 l24 -43 -23 -19 c-25 -21 -46 -17 -96 17 -44 29 -51
24 -17 -13 l26 -28 -52 -8 c-52 -7 -165 -53 -156 -62 3 -3 34 4 69 15 64 20
166 28 124 10 -18 -8 -17 -9 7 -9 14 -1 29 5 31 12 4 9 6 9 6 0 1 -6 -4 -15
-9 -18 -6 -4 -7 -13 -1 -24 6 -9 8 -26 7 -37 -2 -10 1 -24 6 -30 6 -8 -3 -19
-27 -32 -19 -12 -44 -36 -55 -54 -24 -39 -60 -151 -59 -182 0 -14 5 -8 12 16
7 21 30 63 52 94 68 95 66 93 55 59 -10 -30 -10 -30 20 7 40 48 60 41 60 -19
0 -24 4 -42 9 -39 10 7 24 -22 16 -33 -2 -5 10 -21 28 -37 23 -21 26 -23 12
-5 l-20 24 22 -12 c34 -18 35 -14 8 33 -34 58 -39 115 -12 139 15 12 16 17 6
17 -31 0 -39 21 -23 59 12 28 12 41 3 63 -9 22 -9 35 2 61 22 54 56 91 50 55
0 -4 22 -4 49 -1 54 6 53 6 64 -54 5 -29 2 -34 -19 -39 -26 -6 -35 -24 -12
-24 6 0 19 -5 27 -10 13 -8 10 -14 -15 -35 l-30 -24 25 -1 25 -1 -26 -14 c-14
-8 -34 -26 -44 -41 l-18 -27 33 24 c72 54 64 53 111 17 89 -67 122 -206 81
-341 -11 -37 -16 -69 -12 -72 4 -3 14 17 21 45 7 27 16 50 21 50 4 0 15 17 23
37 9 20 34 60 55 88 56 72 49 81 -11 15 l-51 -55 31 47 c17 25 45 57 62 70 67
50 89 76 89 105 0 22 6 31 29 40 20 7 35 23 45 47 8 20 19 36 25 36 12 0 41
28 41 40 0 5 -7 6 -17 3 -11 -4 -14 -3 -9 5 4 7 16 12 28 12 12 0 18 5 15 13
-6 16 14 35 31 29 8 -2 12 2 11 9 -4 20 27 75 46 83 9 3 31 6 49 6 26 0 35 6
45 26 10 23 10 26 -5 20 -14 -5 -15 -4 -4 9 7 9 16 12 19 7 8 -12 46 -9 63 5
13 11 18 13 38 13 11 0 50 40 50 52 0 4 -10 8 -22 9 -13 0 -17 3 -10 6 6 2 10
9 7 13 -3 5 -23 3 -44 -5 -35 -12 -99 -13 -118 -2 -13 8 -145 -12 -159 -23 -7
-6 -16 -24 -19 -40 -4 -18 -17 -35 -33 -43 -15 -7 -37 -20 -49 -27 -17 -11
-25 -12 -34 -3 -9 9 -6 21 15 53 14 22 31 40 36 40 6 0 10 7 10 16 0 8 7 22
15 30 8 9 15 20 15 25 0 6 -7 3 -16 -5 -8 -9 -19 -16 -24 -16 -5 0 -12 -9 -15
-20 -4 -12 -16 -30 -28 -42 -12 -11 -16 -17 -8 -13 9 5 12 4 8 -2 -4 -6 -16
-13 -27 -16 -17 -4 -22 0 -27 23 -4 21 -9 27 -22 22 -23 -8 -40 -33 -41 -57 0
-27 -19 -45 -46 -45 -34 0 -57 -28 -51 -64 3 -22 -3 -41 -24 -70 -34 -46 -35
-59 -9 -126 21 -54 27 -120 10 -120 -5 0 -10 7 -10 16 0 8 -5 25 -12 37 -7 12
-13 27 -14 33 -1 6 -14 29 -29 52 -25 38 -26 41 -11 71 9 16 16 37 16 46 0 9
6 18 14 21 19 7 33 47 41 112 3 29 9 60 12 69 10 26 -33 -20 -51 -55 -8 -16
-22 -34 -30 -41 -14 -12 -15 -9 -10 20 3 19 10 49 14 67 5 19 5 32 -1 32 -5 0
-9 -7 -9 -16 0 -8 -4 -12 -10 -9 -5 3 -10 14 -10 24 0 9 -27 60 -60 111 -62
97 -64 102 -61 161 3 44 -38 99 -74 99 -16 0 -33 12 -51 35 -17 23 -35 35 -50
35 -13 0 -32 9 -41 20 -10 11 -29 20 -44 20 -15 0 -32 7 -39 15 -14 17 -115
22 -105 5z m112 -236 c-3 -3 -12 -4 -19 -1 -8 3 -5 6 6 6 11 1 17 -2 13 -5z
m242 -27 c8 -11 6 -13 -9 -12 -11 1 -26 7 -32 13 -9 9 -7 12 9 12 11 0 26 -6
32 -13z m-329 -37 c0 -5 -4 -10 -10 -10 -5 0 -10 5 -10 10 0 6 5 10 10 10 6 0
10 -4 10 -10z m315 -50 c10 -11 14 -20 9 -20 -5 0 -15 9 -22 20 -7 11 -11 20
-9 20 2 0 12 -9 22 -20z m110 -111 c-3 -4 1 -10 7 -12 8 -3 6 -6 -4 -6 -16 -1
-22 9 -20 30 1 4 -8 15 -18 24 -11 10 -20 23 -20 29 1 6 14 -4 30 -23 16 -19
27 -38 25 -42z m812 -25 c-3 -3 -12 -4 -19 -1 -8 3 -5 6 6 6 11 1 17 -2 13 -5z
m-476 -128 l-22 -21 17 35 c10 20 19 29 22 21 2 -7 -5 -23 -17 -35z m-11 -66
c-6 -11 -13 -20 -16 -20 -2 0 0 9 6 20 6 11 13 20 16 20 2 0 0 -9 -6 -20z
m-492 -75 c-3 -3 -9 2 -12 12 -6 14 -5 15 5 6 7 -7 10 -15 7 -18z m-78 -5 c8
-5 11 -10 5 -10 -5 0 -17 5 -25 10 -8 5 -10 10 -5 10 6 0 17 -5 25 -10z m50
-20 c-9 -6 -8 -9 6 -13 16 -4 16 -5 -3 -6 -19 -1 -23 -7 -24 -33 l-1 -33 -7
30 c-4 19 -2 35 6 43 7 7 13 18 13 23 0 6 5 7 11 3 8 -5 7 -9 -1 -14z m-23
-122 c-3 -7 -5 -2 -5 12 0 14 2 19 5 13 2 -7 2 -19 0 -25z m429 -90 c-2 -40
-5 -76 -5 -80 -1 -5 -6 -8 -11 -8 -7 0 -9 13 -6 33 3 17 8 53 11 80 9 72 17
56 11 -25z"/>
<path d="M1490 2435 c0 -8 4 -15 10 -15 5 0 7 7 4 15 -4 8 -8 15 -10 15 -2 0
-4 -7 -4 -15z"/>
<path d="M1375 2400 c11 -5 27 -9 35 -9 9 0 8 4 -5 9 -11 5 -27 9 -35 9 -9 0
-8 -4 5 -9z"/>
<path d="M1438 2383 c7 -3 16 -2 19 1 4 3 -2 6 -13 5 -11 0 -14 -3 -6 -6z"/>
<path d="M1548 2323 c7 -3 16 -2 19 1 4 3 -2 6 -13 5 -11 0 -14 -3 -6 -6z"/>
<path d="M1417 2282 c-31 -32 -37 -52 -7 -22 11 11 31 20 44 20 22 0 26 -6 35
-52 5 -29 13 -78 17 -108 7 -51 8 -53 15 -25 5 17 21 45 36 62 l28 31 23 -25
c12 -13 22 -30 22 -36 0 -5 3 -8 6 -4 4 3 3 14 -1 24 -5 10 -10 29 -12 43 -2
14 -10 34 -17 45 -7 11 -16 32 -19 46 -6 24 -10 26 -75 27 -63 2 -70 0 -95
-26z"/>
<path d="M1230 2050 c0 -5 11 -12 25 -16 14 -3 25 -10 25 -15 0 -5 5 -9 11 -9
17 0 0 19 -32 35 -16 9 -29 11 -29 5z"/>
<path d="M2348 2023 c7 -3 16 -2 19 1 4 3 -2 6 -13 5 -11 0 -14 -3 -6 -6z"/>
<path d="M1870 1999 c0 -5 -15 -23 -32 -40 -22 -19 -27 -29 -17 -29 9 0 23 8
31 18 17 18 33 62 24 62 -3 0 -6 -5 -6 -11z"/>
<path d="M1290 1995 c0 -5 5 -17 10 -25 5 -8 10 -10 10 -5 0 6 -5 17 -10 25
-5 8 -10 11 -10 5z"/>
<path d="M1270 1710 c0 -5 5 -10 11 -10 5 0 7 5 4 10 -3 6 -8 10 -11 10 -2 0
-4 -4 -4 -10z"/>
<path d="M2245 1578 c-57 -47 -65 -59 -64 -98 3 -54 0 -72 -10 -65 -5 3 -12
18 -16 34 -3 16 -13 32 -21 35 -18 7 -18 -1 1 -20 20 -21 19 -31 -5 -39 -11
-3 -20 -10 -20 -15 0 -5 7 -7 16 -3 12 4 15 0 13 -18 -1 -13 1 -31 4 -39 3 -8
8 -22 10 -30 3 -8 6 -1 7 15 0 26 2 28 11 12 11 -19 7 -51 -11 -77 -9 -13 -11
-13 -21 0 -9 13 -10 12 -5 -2 3 -11 -4 -24 -22 -36 -45 -31 -52 -34 -47 -19 7
16 -31 67 -50 67 -7 0 -16 7 -19 16 -3 8 -10 13 -16 9 -5 -3 -8 9 -6 30 1 20
-2 38 -6 42 -5 3 -7 11 -4 19 3 8 1 14 -4 14 -5 0 -12 -10 -15 -23 -6 -23 -7
-23 -44 15 -21 21 -46 38 -55 38 -15 0 -15 -2 0 -25 9 -14 20 -25 24 -25 4 0
11 -7 14 -16 4 -11 -3 -9 -27 8 l-32 23 39 -48 c37 -46 38 -48 20 -62 -10 -8
-21 -13 -24 -12 -71 38 -136 45 -164 17 -8 -8 -6 -9 5 -5 10 4 19 0 22 -9 4
-9 14 -16 24 -16 15 0 16 -2 3 -10 -11 -7 -7 -10 17 -10 17 0 35 -5 38 -10 4
-7 14 -6 28 1 13 6 8 -1 -11 -18 -27 -22 -35 -38 -39 -74 -3 -26 0 -55 6 -65
10 -18 10 -18 11 1 0 11 3 31 5 45 5 22 4 22 -4 5 -5 -11 -10 -14 -10 -7 -1
22 27 69 46 76 14 6 13 2 -5 -17 -12 -13 -22 -27 -22 -32 0 -4 11 4 25 19 14
15 25 31 25 37 0 17 26 9 70 -20 40 -27 70 -31 70 -10 0 5 6 9 13 9 6 -1 2 -9
-10 -19 -20 -16 -20 -21 -8 -37 19 -25 19 -49 0 -64 -8 -7 -15 -20 -15 -29 0
-13 2 -14 9 -2 13 21 54 1 77 -36 64 -104 74 -112 74 -63 0 38 -24 98 -51 126
-18 19 -18 22 -4 28 10 4 14 2 9 -6 -5 -7 -3 -8 5 -3 9 5 10 10 2 18 -16 16
-13 31 3 18 8 -7 25 -13 38 -14 13 -1 32 -9 42 -17 55 -44 86 -80 86 -98 0
-12 5 -24 10 -27 6 -4 9 -9 7 -13 -2 -4 7 -18 20 -31 22 -23 23 -23 23 -4 0
42 -38 132 -74 177 -27 32 -50 49 -77 56 -35 10 -38 13 -27 30 9 14 20 17 42
14 24 -4 28 -3 16 5 -10 7 -11 11 -2 11 6 0 12 5 12 10 0 7 -6 7 -18 1 -11 -6
-24 -6 -33 0 -11 7 -8 9 11 10 14 1 32 1 40 0 8 -1 27 -2 42 -2 15 1 38 -9 54
-24 15 -14 32 -25 38 -25 17 1 -34 38 -86 64 -28 14 -57 22 -70 19 -14 -4 -19
-2 -14 5 4 7 21 16 39 20 18 5 31 15 29 22 -2 7 11 31 28 52 27 33 47 88 33
88 -2 0 -21 -9 -43 -20 -52 -26 -53 -26 -29 15 12 20 16 35 10 35 -6 0 -11 -5
-11 -12 0 -6 -3 -9 -6 -6 -3 4 -1 16 6 27 13 25 3 51 -11 30 -5 -8 -9 -9 -9
-3 0 6 16 29 36 52 19 23 34 42 32 42 -2 0 -21 -15 -43 -32z m65 -162 c0 -2
-8 -10 -17 -17 -16 -13 -17 -12 -4 4 13 16 21 21 21 13z m-320 -130 c0 -3 -4
-8 -10 -11 -5 -3 -10 -1 -10 4 0 6 5 11 10 11 6 0 10 -2 10 -4z m-5 -35 c3 -5
1 -12 -4 -15 -5 -3 -11 1 -15 9 -6 16 9 21 19 6z m30 -21 c3 -5 -1 -10 -10
-10 -9 0 -13 5 -10 10 3 6 8 10 10 10 2 0 7 -4 10 -10z m19 -68 c3 -5 -1 -9
-9 -9 -8 0 -12 4 -9 9 3 4 7 8 9 8 2 0 6 -4 9 -8z m1 -102 c3 -6 -1 -7 -9 -4
-18 7 -21 14 -7 14 6 0 13 -4 16 -10z"/>
<path d="M1730 1428 c0 -19 2 -20 10 -8 13 19 13 30 0 30 -5 0 -10 -10 -10
-22z"/>
<path d="M1345 1350 c-18 -20 -18 -21 2 -43 27 -28 55 -95 43 -102 -12 -7 -21
9 -25 47 -3 17 -7 33 -10 36 -3 4 -3 -13 0 -36 5 -41 23 -82 37 -82 10 0 38
-30 38 -40 0 -5 -8 -7 -17 -3 -14 4 -11 -1 8 -23 34 -39 35 -82 5 -151 -13
-32 -29 -71 -34 -88 -10 -29 -11 -28 -13 20 -1 28 -2 73 -3 100 -1 46 -3 50
-23 48 -16 -2 -24 3 -25 15 0 9 -2 29 -3 43 -3 37 -13 49 -41 49 -13 0 -24 4
-24 9 0 26 -118 121 -149 121 -12 0 -21 -4 -21 -9 0 -11 40 -26 55 -22 6 1 7
-1 3 -4 -11 -12 11 -46 25 -39 7 4 9 4 5 0 -7 -8 61 -102 71 -99 4 1 8 -6 9
-15 1 -9 4 -32 6 -50 4 -29 2 -33 -15 -29 -23 6 -26 -15 -5 -32 10 -8 13 -23
9 -47 -4 -23 -2 -34 6 -34 7 0 9 5 5 13 -5 8 -2 8 9 -2 18 -15 23 -26 7 -16
-29 18 15 -48 63 -93 18 -17 27 -37 27 -57 0 -16 5 -37 10 -45 8 -12 10 -10
10 8 0 25 31 59 99 107 23 16 44 41 48 55 3 14 14 34 24 45 26 29 37 66 28 95
-4 14 -7 19 -8 11 -1 -8 -4 -11 -8 -8 -3 4 4 18 16 31 13 14 22 29 20 35 -6
17 -65 -17 -77 -45 -7 -13 -19 -24 -27 -24 -10 0 -29 -30 -52 -81 -21 -45 -39
-76 -41 -70 -2 7 21 63 52 125 61 123 68 147 31 101 -30 -36 -32 -22 -5 36 25
56 25 97 0 129 -11 14 -20 37 -20 52 0 19 -10 35 -33 52 -41 31 -68 33 -92 6z
m22 -22 c-21 -14 -28 -9 -15 12 9 13 14 16 20 7 4 -6 2 -15 -5 -19z m153 -478
c-6 -11 -12 -20 -14 -20 -2 0 -2 9 1 20 3 11 9 20 15 20 5 0 4 -9 -2 -20z
m-113 -67 c-3 -10 -5 -4 -5 12 0 17 2 24 5 18 2 -7 2 -21 0 -30z"/>
<path d="M2238 1193 c7 -3 16 -2 19 1 4 3 -2 6 -13 5 -11 0 -14 -3 -6 -6z"/>
<path d="M1823 1135 c-3 -9 -3 -18 -1 -21 3 -3 8 4 11 16 6 23 -1 27 -10 5z"/>
<path d="M1770 1048 c0 -5 -13 -14 -29 -19 -41 -14 -50 -40 -10 -29 24 7 29 6
29 -9 0 -11 -23 -32 -60 -55 -84 -52 -171 -135 -202 -193 -14 -26 -36 -81 -48
-120 -13 -40 -26 -70 -30 -68 -5 3 -11 22 -15 43 -3 20 -11 44 -16 52 -13 19
-2 -85 12 -111 5 -10 9 -25 9 -34 0 -9 8 -35 18 -58 10 -23 23 -53 29 -67 l11
-25 9 24 c7 18 5 33 -9 60 -48 90 29 212 114 182 17 -6 52 -11 77 -11 39 0 51
5 73 30 30 34 86 42 108 14 20 -23 63 -14 77 17 20 41 93 65 143 46 8 -3 22
-5 30 -5 8 1 32 -2 53 -6 23 -4 37 -3 37 3 0 15 -35 31 -68 31 -18 0 -37 10
-52 25 -17 18 -34 25 -61 25 -20 0 -42 7 -49 15 -15 18 -50 19 -84 4 -20 -10
-32 -8 -61 5 -27 13 -43 15 -64 8 -15 -5 -40 -8 -54 -5 -58 11 -100 -16 -133
-86 -34 -73 -72 -97 -49 -31 39 111 134 193 273 236 23 7 41 10 38 5 -3 -4 4
-15 15 -24 10 -9 19 -13 19 -8 0 6 17 7 38 4 34 -6 36 -5 23 10 -21 26 -7 21
65 -23 36 -22 70 -40 75 -40 5 0 9 -5 9 -12 0 -6 2 -9 6 -6 3 3 -2 21 -10 39
-11 23 -14 26 -10 9 l6 -25 -23 21 c-13 12 -47 34 -75 48 -62 32 -89 59 -80
81 4 13 1 15 -14 10 -15 -5 -18 -3 -14 9 4 11 0 16 -12 17 -11 0 -29 2 -41 3
-13 2 -23 -1 -23 -6z m104 -84 c5 -14 4 -15 -9 -4 -17 14 -19 20 -6 20 5 0 12
-7 15 -16z m-10 -213 c4 -5 -3 -7 -14 -4 -23 6 -26 13 -6 13 8 0 17 -4 20 -9z
m106 -5 c0 -11 -19 -15 -25 -6 -3 5 1 10 9 10 9 0 16 -2 16 -4z m-65 -65 c-3
-6 -14 -11 -23 -11 -13 0 -13 2 4 14 21 15 30 14 19 -3z m-150 -1 c-3 -5 -10
-10 -16 -10 -5 0 -9 5 -9 10 0 6 7 10 16 10 8 0 12 -4 9 -10z"/>
<path d="M1905 999 c-9 -14 -5 -17 28 -23 14 -2 32 -8 38 -12 8 -4 9 -3 5 5
-13 20 -64 42 -71 30z"/>
<path d="M1980 685 c-14 -16 -10 -18 14 -9 9 3 16 10 16 15 0 14 -16 11 -30
-6z"/>
<path d="M2228 693 c7 -3 16 -2 19 1 4 3 -2 6 -13 5 -11 0 -14 -3 -6 -6z"/>
</g>
</svg>
