<?xml version="1.0" standalone="no"?>
<!DOCTYPE svg PUBLIC "-//W3C//DTD SVG 20010904//EN"
 "http://www.w3.org/TR/2001/REC-SVG-20010904/DTD/svg10.dtd">
<svg version="1.0" xmlns="http://www.w3.org/2000/svg"
 width="576.000000pt" height="432.000000pt" viewBox="0 0 576.000000 432.000000"
 preserveAspectRatio="xMidYMid meet">

<g transform="translate(0.000000,432.000000) scale(0.100000,-0.100000)"
fill="#000000" stroke="none">
<path d="M3100 3680 c0 -5 -7 -10 -15 -10 -8 0 -15 -5 -15 -11 0 -7 -8 -18
-17 -25 -16 -12 -16 -15 -3 -24 11 -7 11 -10 2 -10 -10 0 -10 -3 0 -14 7 -8
16 -12 21 -9 4 2 7 -12 7 -31 0 -30 4 -37 25 -42 14 -3 25 -10 25 -15 0 -5 11
-9 25 -9 26 0 35 24 13 33 -7 3 -2 6 12 6 22 1 64 19 50 22 -3 0 -15 2 -27 3
-34 4 -69 46 -65 80 2 19 -3 35 -17 47 -12 11 -21 15 -21 9z"/>
<path d="M1570 3578 c0 -12 1 -19 3 -17 1 2 9 12 16 22 12 14 11 17 -3 17 -10
0 -16 -8 -16 -22z"/>
<path d="M1595 3560 c-18 -20 -18 -21 1 -41 l20 -20 20 22 c19 22 19 22 -4 10
-34 -18 -47 -3 -21 25 12 13 18 24 12 24 -5 0 -18 -9 -28 -20z"/>
<path d="M1636 3501 c-3 -4 1 -17 9 -27 10 -15 16 -16 26 -7 9 9 8 15 -4 27
-18 18 -24 20 -31 7z"/>
<path d="M1653 3443 c-23 -4 -33 -23 -13 -23 6 0 10 -9 10 -20 0 -22 19 -27
37 -9 10 10 6 60 -6 58 -3 -1 -16 -4 -28 -6z"/>
<path d="M2532 3304 c10 -10 20 -15 24 -12 3 4 -5 12 -18 18 -22 12 -22 12 -6
-6z"/>
<path d="M2361 3266 c2 -2 18 -6 34 -10 22 -5 26 -4 15 4 -14 9 -59 15 -49 6z"/>
<path d="M2328 3193 c6 -2 18 -2 25 0 6 3 1 5 -13 5 -14 0 -19 -2 -12 -5z"/>
<path d="M4086 3174 c-11 -28 -6 -44 13 -44 11 0 21 -4 23 -9 2 -6 22 -14 46
-19 37 -9 44 -8 52 8 16 30 11 38 -6 10 -14 -24 -15 -24 -11 -2 4 17 0 23 -19
28 -13 3 -24 10 -24 15 0 5 -9 9 -19 9 -11 0 -23 5 -26 10 -9 15 -22 12 -29
-6z"/>
<path d="M2508 3163 c7 -3 16 -2 19 1 4 3 -2 6 -13 5 -11 0 -14 -3 -6 -6z"/>
<path d="M2440 3130 c8 -5 24 -9 35 -9 l20 0 -20 9 c-11 5 -27 9 -35 9 -13 1
-13 0 0 -9z"/>
<path d="M4230 3095 c-7 -9 -11 -18 -8 -20 3 -3 11 1 18 10 7 9 11 18 8 20 -3
3 -11 -1 -18 -10z"/>
<path d="M4240 3050 c0 -5 5 -10 10 -10 6 0 10 5 10 10 0 6 -4 10 -10 10 -5 0
-10 -4 -10 -10z"/>
<path d="M1710 2851 c0 -6 4 -13 10 -16 6 -3 7 1 4 9 -7 18 -14 21 -14 7z"/>
<path d="M2451 2784 c-1 -6 8 -60 18 -120 11 -60 23 -145 26 -189 10 -120 71
-473 107 -622 18 -73 29 -136 24 -140 -4 -4 -16 3 -27 17 -11 14 -36 42 -56
62 -29 29 -39 34 -53 26 -12 -8 -25 -6 -48 6 -41 21 -70 20 -128 -4 -26 -11
-49 -18 -52 -16 -2 3 5 18 17 34 18 25 19 31 6 36 -23 9 -47 -4 -81 -42 -35
-41 -59 -37 -50 9 7 36 -11 38 -74 6 -39 -19 -45 -26 -42 -49 2 -16 -1 -28 -7
-28 -6 0 -11 4 -11 9 0 6 -11 22 -24 36 -14 15 -27 32 -29 38 -2 8 -12 6 -30
-6 -14 -9 -31 -17 -37 -17 -6 0 -32 21 -57 48 -45 46 -46 46 -28 12 10 -19 40
-59 66 -88 27 -30 49 -59 49 -65 0 -7 -9 -30 -19 -52 -34 -76 -52 -275 -24
-275 4 0 30 16 59 36 l53 37 18 -22 c10 -13 43 -35 73 -49 60 -30 79 -62 36
-62 -14 0 -28 5 -31 10 -10 17 -25 11 -25 -10 0 -21 66 -125 97 -152 10 -9 28
-19 41 -22 12 -4 22 -11 22 -16 0 -18 79 -51 106 -44 20 5 32 0 57 -23 37 -35
147 -60 213 -49 98 16 178 25 187 19 5 -3 6 -19 3 -36 -5 -25 -4 -29 6 -19 7
7 17 12 24 12 14 0 26 -38 12 -42 -15 -5 -14 -118 2 -128 7 -5 15 -18 17 -29
1 -11 3 -24 4 -28 5 -28 -2 -36 -15 -18 -8 11 -12 23 -10 27 5 7 -11 12 -29 9
-14 -2 -20 31 -6 39 7 5 11 12 8 15 -4 3 -15 -2 -27 -12 -14 -13 -21 -35 -25
-76 -3 -31 -4 -57 -2 -57 2 0 21 12 42 26 25 16 39 21 42 13 2 -6 -1 -14 -7
-18 -7 -4 -8 -12 -2 -21 6 -8 10 -29 10 -47 0 -18 6 -36 13 -40 7 -4 19 -28
26 -53 8 -25 20 -64 27 -88 8 -23 14 -50 14 -60 0 -15 -2 -15 -11 -2 -9 12
-10 12 -5 -3 3 -10 6 -21 6 -24 0 -2 7 2 15 11 13 13 14 25 5 78 -46 271 -44
249 -33 309 l8 47 34 -17 c19 -9 43 -32 54 -51 10 -19 28 -44 39 -55 14 -14
12 -8 -6 19 -17 26 -23 42 -16 46 7 4 -1 16 -20 31 -57 44 -104 173 -70 194 6
3 10 16 10 28 1 18 20 31 98 70 101 49 143 57 210 37 30 -8 33 -7 27 8 -19 43
-12 57 32 60 22 2 58 -4 78 -12 48 -20 45 -21 43 16 -5 52 24 47 71 -12 23
-29 41 -45 41 -36 0 25 15 27 64 9 47 -18 55 -30 34 -52 -11 -11 4 -12 80 -6
80 6 92 5 92 -9 0 -9 -12 -19 -27 -22 -16 -4 -36 -12 -46 -19 -15 -11 -10 -16
45 -43 99 -47 239 -81 266 -64 10 7 6 11 -15 15 -33 6 -87 52 -78 66 3 6 -50
66 -118 134 -115 114 -124 126 -119 155 5 36 -2 39 -54 17 -26 -11 -41 -12
-62 -4 -15 6 -74 9 -132 8 -58 -1 -115 1 -126 5 -19 7 -21 5 -17 -18 5 -22 2
-26 -20 -26 -17 0 -26 -7 -30 -21 -5 -17 -11 -20 -31 -15 -15 4 -26 2 -26 -4
0 -5 -9 -10 -20 -10 -10 0 -24 -9 -30 -20 -8 -15 -17 -19 -35 -14 -21 5 -25 2
-25 -15 0 -23 -18 -29 -26 -8 -9 24 14 65 38 69 14 2 24 12 28 27 4 18 17 28
46 38 34 11 40 17 37 36 -3 16 4 27 27 40 29 18 32 18 57 2 l25 -17 -7 50 c-8
62 4 72 48 38 19 -15 36 -26 38 -26 2 0 4 40 4 90 0 71 4 93 17 106 14 14 20
15 32 4 9 -7 16 -19 16 -26 0 -23 38 -54 66 -54 21 0 25 3 19 18 -24 58 -27
71 -21 95 3 15 13 27 22 27 11 0 13 6 9 20 -4 13 -1 22 8 26 9 3 13 13 10 25
-4 14 0 19 16 19 14 0 25 -11 35 -35 27 -64 32 -52 61 133 9 59 35 53 55 -12
15 -46 16 -47 28 -24 12 22 62 184 62 199 0 10 -64 -12 -115 -41 -37 -20 -35
-17 25 41 72 68 68 67 -35 -11 -82 -63 -210 -182 -241 -225 -12 -16 -56 -79
-97 -140 -78 -114 -208 -271 -342 -410 -76 -80 -103 -118 -111 -158 -2 -11
-10 -28 -18 -36 -14 -13 -16 -13 -21 1 -10 25 83 208 105 208 11 0 21 12 27
33 7 23 14 31 27 29 16 -3 18 2 13 30 -3 19 1 40 7 48 7 8 18 34 25 58 10 36
15 42 32 37 16 -5 19 -1 19 28 0 27 5 36 26 46 20 9 25 17 21 34 -2 12 -1 33
2 47 6 21 12 24 38 22 41 -4 53 25 21 50 -23 18 -23 19 -4 33 11 8 35 15 53
15 37 0 37 -1 23 36 -9 22 -7 31 10 49 15 16 19 29 14 49 -5 23 -3 26 19 26
14 0 29 -4 32 -10 4 -6 17 -4 36 5 28 15 29 16 14 45 -8 16 -20 32 -25 35 -19
12 -76 -41 -88 -82 -11 -37 -37 -73 -65 -90 -7 -4 -29 -34 -49 -67 -20 -32
-50 -67 -67 -77 -30 -18 -71 -91 -71 -127 0 -11 -7 -25 -15 -32 -24 -20 -19
-2 51 182 36 95 83 222 105 282 22 60 60 159 85 219 24 60 43 111 41 113 -7 7
-84 -167 -137 -311 -28 -77 -76 -201 -105 -275 -29 -74 -67 -180 -83 -235 -17
-55 -43 -122 -57 -148 -14 -27 -25 -57 -25 -68 0 -13 -8 -23 -20 -26 -18 -5
-19 -7 -5 -17 20 -14 9 -47 -30 -94 -28 -33 -45 -34 -45 -3 0 23 -56 135 -76
152 -35 29 -50 78 -150 484 -37 148 -67 320 -109 625 -22 160 -61 356 -64 324z
m89 -1039 c0 -9 -7 -26 -16 -39 -13 -21 -19 -23 -46 -16 -16 5 -37 15 -45 22
-13 11 -12 14 7 30 28 23 100 25 100 3z m823 -124 c-5 -20 -43 -61 -43 -47 0
9 39 66 45 66 2 0 1 -9 -2 -19z m-735 -38 c2 -7 -4 -16 -12 -19 -19 -7 -49 14
-40 28 8 13 46 6 52 -9z m-403 -43 c14 -27 27 -50 30 -50 3 0 13 17 22 38 20
40 51 53 72 28 7 -8 13 -42 14 -75 l2 -60 21 20 c38 36 47 25 42 -55 l-3 -75
27 6 c26 5 28 3 28 -26 0 -28 -3 -31 -30 -31 -23 0 -30 5 -30 19 0 21 -28 42
-84 62 -21 8 -45 24 -54 37 -8 12 -18 22 -23 22 -16 0 80 -125 143 -187 55
-54 136 -109 145 -99 2 2 -6 22 -18 44 -18 34 -20 44 -9 57 7 8 19 15 27 15
12 0 14 -9 8 -46 -6 -45 -6 -46 17 -38 46 14 53 11 53 -25 -1 -28 -6 -35 -33
-47 -18 -7 -32 -9 -32 -5 0 5 -24 20 -52 34 -71 35 -129 84 -121 102 3 9 -1
15 -10 15 -36 0 -196 196 -197 242 0 7 -7 22 -15 32 -20 26 -19 55 2 78 24 27
30 23 58 -32z m1077 -2 c-7 -7 -12 -8 -12 -2 0 14 12 26 19 19 2 -3 -1 -11 -7
-17z m-622 -64 c0 -3 -5 -14 -10 -25 -13 -22 -33 -25 -49 -5 -10 11 -8 17 6
25 19 11 53 15 53 5z m484 -85 c-64 -72 -84 -92 -84 -86 0 9 90 107 98 107 3
0 -3 -10 -14 -21z m-462 -51 c9 -7 24 -30 32 -52 l16 -38 -28 17 c-15 10 -38
29 -52 42 -20 20 -22 26 -10 34 20 12 23 11 42 -3z m67 -124 c6 -15 10 -29 7
-31 -7 -7 -46 39 -40 49 9 15 21 9 33 -18z m299 -21 c-5 -26 -38 -29 -38 -4 0
15 6 21 21 21 14 0 19 -5 17 -17z m-213 -263 c3 -5 -1 -10 -10 -10 -9 0 -13 5
-10 10 3 6 8 10 10 10 2 0 7 -4 10 -10z"/>
<path d="M2166 1540 c8 -32 64 -113 72 -106 3 4 0 12 -6 18 -7 7 -12 18 -12
25 0 7 -8 21 -17 31 -10 10 -24 27 -31 38 -11 17 -12 17 -6 -6z"/>
<path d="M1800 2720 c11 -22 22 -40 24 -40 9 0 -21 70 -31 75 -8 3 -6 -10 7
-35z"/>
<path d="M3469 2743 c-13 -16 -12 -17 4 -4 16 13 21 21 13 21 -2 0 -10 -8 -17
-17z"/>
<path d="M1634 2240 c4 -14 11 -39 15 -57 5 -17 18 -47 29 -65 11 -18 23 -48
27 -66 6 -30 18 -36 21 -11 1 5 2 14 3 19 0 6 9 10 19 10 11 0 23 -13 31 -35
14 -40 54 -75 85 -75 11 0 34 -7 50 -15 15 -8 32 -13 36 -10 10 6 -23 104 -47
142 -51 80 -155 159 -212 161 -18 0 -40 7 -48 14 -15 11 -16 10 -9 -12z"/>
<path d="M1920 2111 c8 -6 15 -16 15 -23 0 -7 8 -14 18 -16 35 -7 14 32 -23
42 -19 6 -21 5 -10 -3z"/>
<path d="M1956 2054 c7 -3 10 -15 8 -27 -4 -21 -4 -21 5 -2 14 29 13 35 -6 34
-10 0 -13 -3 -7 -5z"/>
<path d="M1980 2021 c0 -6 4 -13 10 -16 6 -3 7 1 4 9 -7 18 -14 21 -14 7z"/>
<path d="M1980 1975 c0 -9 7 -18 15 -22 24 -9 27 1 5 20 -17 14 -20 15 -20 2z"/>
<path d="M1997 1923 c3 -7 6 -13 8 -13 2 0 5 6 8 13 3 8 -1 14 -8 14 -7 0 -11
-6 -8 -14z"/>
<path d="M2390 1897 c8 -9 29 -19 45 -23 39 -9 29 1 -21 22 -33 13 -37 14 -24
1z"/>
<path d="M2025 1850 c-3 -5 -1 -10 4 -10 6 0 11 5 11 10 0 6 -2 10 -4 10 -3 0
-8 -4 -11 -10z"/>
<path d="M2790 957 c0 -27 13 -36 26 -16 3 6 -1 18 -10 27 -15 15 -16 14 -16
-11z"/>
<path d="M2786 705 c-9 -26 -7 -32 5 -12 6 10 9 21 6 23 -2 3 -7 -2 -11 -11z"/>
<path d="M3068 703 c7 -3 16 -2 19 1 4 3 -2 6 -13 5 -11 0 -14 -3 -6 -6z"/>
<path d="M2726 674 c-4 -9 -4 -19 -1 -22 2 -3 7 3 11 12 4 9 4 19 1 22 -2 3
-7 -3 -11 -12z"/>
<path d="M3125 670 c3 -5 8 -10 11 -10 2 0 4 5 4 10 0 6 -5 10 -11 10 -5 0 -7
-4 -4 -10z"/>
<path d="M2736 634 c-10 -25 1 -29 14 -5 6 12 7 21 1 21 -5 0 -12 -7 -15 -16z"/>
<path d="M2677 569 c-15 -17 -27 -36 -27 -43 0 -11 32 24 51 57 14 25 7 21
-24 -14z"/>
<path d="M2640 478 c0 -19 2 -20 10 -8 13 19 13 30 0 30 -5 0 -10 -10 -10 -22z"/>
</g>
</svg>
