<?xml version="1.0" standalone="no"?>
<!DOCTYPE svg PUBLIC "-//W3C//DTD SVG 20010904//EN"
 "http://www.w3.org/TR/2001/REC-SVG-20010904/DTD/svg10.dtd">
<svg version="1.0" xmlns="http://www.w3.org/2000/svg"
 width="340.000000pt" height="340.000000pt" viewBox="0 0 340.000000 340.000000"
 preserveAspectRatio="xMidYMid meet">

<g transform="translate(0.000000,340.000000) scale(0.100000,-0.100000)"
fill="#000000" stroke="none">
<path d="M1350 2850 c0 -5 7 -7 15 -4 8 4 15 8 15 10 0 2 -7 4 -15 4 -8 0 -15
-4 -15 -10z"/>
<path d="M1582 2750 c-13 -6 -28 -7 -33 -4 -16 10 -79 -17 -90 -38 -7 -13 -17
-18 -29 -15 -11 3 -36 -1 -57 -8 -37 -13 -38 -14 -36 -61 1 -27 7 -66 13 -89
11 -42 30 -178 25 -183 -9 -10 -25 42 -34 111 -6 43 -20 95 -31 117 -11 22
-20 48 -20 60 0 31 -26 24 -50 -15 -14 -22 -30 -35 -43 -36 -70 -1 -109 -10
-136 -30 -17 -13 -31 -29 -31 -36 0 -7 -7 -13 -15 -13 -8 0 -15 -6 -15 -14 0
-7 -7 -19 -15 -26 -11 -9 -15 -28 -14 -63 2 -42 6 -50 28 -59 25 -10 24 -10
-26 -29 -111 -42 -176 -148 -176 -289 -1 -64 4 -84 30 -135 17 -33 34 -70 38
-82 3 -13 13 -23 21 -23 8 0 14 -4 14 -10 0 -5 8 -7 18 -3 14 5 13 3 -3 -10
-11 -8 -17 -19 -13 -23 4 -3 40 13 80 37 77 46 87 50 90 34 1 -5 12 -18 24
-28 l23 -18 -33 -47 -34 -47 39 -30 c21 -16 38 -34 39 -39 0 -5 8 -15 18 -23
11 -9 13 -16 6 -19 -12 -5 4 -68 26 -106 6 -10 10 -23 10 -29 0 -25 46 -102
73 -121 15 -11 60 -26 100 -33 90 -17 206 -48 234 -63 22 -12 80 -81 100 -119
6 -12 19 -54 28 -92 13 -51 25 -77 47 -98 l30 -28 -17 40 c-50 115 -68 254
-44 338 11 43 27 46 57 15 37 -40 56 -53 74 -50 47 8 88 -52 88 -128 0 -25 4
-39 10 -35 5 3 10 31 10 61 0 32 4 54 11 54 7 0 8 -14 4 -41 -5 -29 -4 -40 4
-35 6 4 11 16 11 26 0 38 10 50 32 39 23 -12 101 9 156 43 18 11 34 19 35 17
2 -2 9 -31 17 -63 13 -51 19 -62 46 -72 27 -11 36 -10 73 9 26 13 52 37 65 59
15 27 29 38 50 40 32 3 39 13 55 75 7 24 15 42 19 40 4 -1 9 2 12 7 3 5 -8 10
-25 12 -61 6 -100 16 -107 27 -5 8 -8 6 -8 -4 0 -21 -21 -29 -54 -23 -21 4
-26 0 -26 -16 0 -17 -5 -21 -26 -18 -23 3 -27 8 -29 45 -4 54 11 65 30 21 11
-26 14 -29 15 -11 0 12 -5 34 -11 50 -7 19 -7 29 0 31 6 2 8 9 4 15 -3 7 6 1
20 -12 30 -27 32 -25 17 14 -9 24 -9 25 13 14 12 -6 32 -21 45 -32 12 -11 22
-15 22 -9 0 6 -6 15 -13 19 -8 4 -22 21 -32 36 l-18 28 26 -7 c16 -3 27 -2 27
4 0 6 14 7 42 0 46 -10 71 -25 62 -39 -3 -5 7 -15 22 -21 22 -10 28 -10 32 0
2 6 10 12 18 12 18 0 37 46 29 71 -10 31 -60 59 -103 59 -23 0 -44 5 -47 10
-3 6 1 10 10 10 9 0 13 5 10 10 -3 6 4 14 17 19 17 7 19 10 6 10 -21 1 -24 17
-5 25 6 3 2 3 -10 0 -36 -8 -46 5 -21 26 l23 19 -25 2 c-42 2 -74 -2 -87 -13
-7 -5 -17 -8 -24 -6 -6 2 7 13 30 23 22 11 41 23 41 28 0 4 8 7 18 7 16 1 16
1 0 11 -13 7 -29 4 -60 -12 l-43 -21 30 33 c17 19 34 37 38 40 5 3 2 9 -6 12
-9 3 -27 -5 -42 -19 -31 -29 -47 -24 -20 6 10 11 15 23 12 27 -4 3 -7 1 -7 -6
0 -7 -6 -11 -14 -8 -7 3 -19 0 -26 -6 -10 -10 -10 -8 -1 10 16 31 13 42 -4 19
-8 -11 -15 -16 -15 -11 0 9 50 145 57 154 1 2 14 -4 27 -13 32 -20 45 -3 19
26 -18 20 -18 20 27 13 33 -5 42 -4 35 4 -6 6 -30 12 -54 13 -29 1 -45 7 -52
20 -5 10 -21 18 -34 18 -32 0 -32 18 0 26 22 5 38 26 18 23 -25 -4 -41 4 -56
31 -10 17 -14 30 -8 30 5 0 11 -4 13 -8 2 -5 14 -5 28 -1 21 6 21 7 5 8 -20 2
-55 23 -55 34 0 4 11 2 24 -3 32 -12 42 11 16 35 -25 23 -50 12 -50 -21 0 -26
0 -27 -20 -9 -24 22 -26 8 -3 -24 16 -24 28 -68 39 -145 5 -31 3 -37 -7 -30
-11 6 -12 5 -3 -7 15 -18 9 -91 -11 -129 -8 -16 -15 -35 -15 -43 0 -8 -7 -20
-15 -27 -19 -15 -19 -11 -1 32 13 30 13 35 1 35 -8 0 -12 -4 -9 -9 3 -4 1 -8
-5 -8 -6 0 -8 -7 -5 -15 4 -11 -1 -15 -17 -16 -23 0 -23 -1 -4 -10 16 -7 13
-8 -12 -4 -25 3 -33 1 -33 -10 0 -19 -4 -19 -41 0 -16 9 -33 14 -37 11 -4 -2
-15 7 -25 20 l-18 24 26 -10 c23 -9 24 -8 16 8 -5 9 -35 43 -67 75 -31 31 -55
60 -52 62 3 3 11 -1 18 -10 7 -8 17 -15 22 -15 6 0 32 -18 59 -41 27 -22 53
-38 59 -34 5 3 10 1 10 -4 0 -6 -5 -11 -11 -11 -5 0 -7 -4 -4 -10 3 -5 20 -10
37 -10 l31 0 -26 26 c-14 14 -30 23 -35 20 -6 -3 -15 1 -22 9 -10 12 -9 15 9
15 l21 0 -22 25 c-12 14 -27 24 -34 21 -7 -3 -21 5 -33 18 -19 20 -19 24 -5
44 8 12 23 22 32 22 12 0 13 3 5 11 -9 9 -22 8 -51 -4 -38 -15 -71 -9 -58 11
3 6 0 13 -6 15 -7 3 -2 5 12 5 14 0 34 3 44 7 14 6 17 5 12 -4 -6 -9 8 -12 58
-10 36 1 66 4 66 6 0 22 -23 40 -45 35 -24 -4 -24 -5 -8 -18 23 -17 8 -16 -37
1 -19 7 -29 14 -21 14 8 1 11 8 8 21 -4 17 -2 18 15 9 10 -6 24 -8 31 -5 7 2
2 8 -10 11 -13 4 -23 12 -23 18 0 6 3 7 7 4 3 -4 11 -3 17 2 9 8 95 29 133 33
7 1 10 5 7 10 -3 4 3 8 14 8 22 0 52 30 52 52 0 8 -19 52 -42 97 -43 88 -85
129 -155 152 -43 14 -179 17 -212 5 -21 -7 -23 -6 -16 10 18 42 16 70 -7 103
-44 65 -213 127 -276 101z m142 -107 c-23 -17 -34 -17 -34 0 0 24 22 38 38 25
12 -10 11 -14 -4 -25z m-594 -128 c0 -6 -45 8 -57 18 -7 5 -10 13 -7 18 5 8
64 -26 64 -36z m-50 -31 c0 -2 -9 0 -20 6 -11 6 -20 13 -20 16 0 2 9 0 20 -6
11 -6 20 -13 20 -16z m-45 -14 c3 -5 2 -10 -4 -10 -5 0 -13 5 -16 10 -3 6 -2
10 4 10 5 0 13 -4 16 -10z m49 -29 c4 -5 -3 -7 -14 -4 -23 6 -26 13 -6 13 8 0
17 -4 20 -9z m139 -31 c3 -11 2 -18 -3 -15 -4 3 -10 14 -13 25 -3 11 -2 18 3
15 4 -3 10 -14 13 -25z m571 -43 c-23 -43 -44 -67 -44 -52 0 3 7 17 15 30 8
14 22 37 31 51 27 44 26 20 -2 -29z m-109 -46 c-3 -6 -11 -11 -17 -11 -6 0 -6
6 2 15 14 17 26 13 15 -4z m493 -47 c-2 -1 -44 -5 -92 -7 -81 -5 -91 -7 -102
-29 -9 -15 -14 -18 -14 -8 -1 11 -3 12 -7 2 -9 -22 -52 -61 -58 -52 -3 4 2 10
10 13 8 4 26 24 39 46 l26 40 82 3 c77 3 123 0 116 -8z m-561 -42 c-15 -14
-27 -21 -27 -15 0 15 41 55 49 48 3 -3 -7 -18 -22 -33z m583 -12 c-8 -5 -17
-7 -19 -4 -3 3 1 9 9 14 8 5 17 7 19 4 3 -3 -1 -9 -9 -14z m-415 -176 c13 5
14 2 4 -15 -6 -12 -8 -33 -4 -47 5 -24 1 -22 -34 18 -48 54 -50 62 -11 48 17
-5 37 -7 45 -4z m-920 -14 c10 -11 16 -20 13 -20 -3 0 -13 9 -23 20 -10 11
-16 20 -13 20 3 0 13 -9 23 -20z m1491 -8 c-15 -3 -16 -6 -5 -13 11 -7 11 -9
-3 -9 -11 0 -18 8 -18 19 0 15 5 18 23 13 20 -6 20 -7 3 -10z m-915 -162 c12
0 12 -2 0 -9 -8 -5 -10 -14 -5 -22 18 -30 13 -57 -12 -62 -14 -2 -22 -2 -19 1
3 3 -2 14 -12 24 -15 17 -15 18 11 18 25 0 26 2 15 23 -7 12 -12 23 -11 25 1
1 -1 2 -4 1 -8 -1 -24 22 -24 35 0 5 10 0 23 -12 13 -12 30 -22 38 -22z m29
30 c0 -5 -2 -10 -4 -10 -3 0 -8 5 -11 10 -3 6 -1 10 4 10 6 0 11 -4 11 -10z
m-465 -40 c-3 -5 -11 -10 -16 -10 -6 0 -7 5 -4 10 3 6 11 10 16 10 6 0 7 -4 4
-10z m880 0 c-3 -5 -15 -10 -25 -10 -10 0 -22 5 -25 10 -4 6 7 10 25 10 18 0
29 -4 25 -10z m-515 -15 c7 -9 8 -15 2 -15 -5 0 -12 7 -16 15 -3 8 -4 15 -2
15 2 0 9 -7 16 -15z m-400 -1 c0 -7 -40 -44 -47 -44 -1 0 -3 11 -3 25 0 20 5
25 25 25 14 0 25 -3 25 -6z m607 -27 c18 -19 18 -20 -4 -8 -12 6 -28 8 -37 5
-8 -3 -19 2 -25 13 -9 17 -7 19 19 15 16 -2 37 -13 47 -25z m304 -2 c44 -19
85 -35 92 -35 7 0 28 -10 47 -21 l35 -22 -25 -9 c-14 -5 -52 -14 -85 -19 -33
-6 -70 -17 -82 -25 -12 -8 -30 -14 -39 -14 -24 0 -52 -40 -59 -85 -4 -22 -14
-47 -21 -56 -8 -9 -18 -36 -22 -60 l-8 -44 -18 33 c-14 27 -21 32 -39 26 -12
-4 -31 -7 -41 -6 -10 0 -31 -5 -47 -13 -15 -8 -41 -16 -58 -17 -37 -3 -40 -13
-8 -29 26 -14 77 -60 77 -70 0 -4 -9 -10 -20 -14 -26 -8 -79 -16 -62 -9 6 3
12 12 12 20 0 14 -17 19 -52 16 -10 -1 -18 2 -18 7 0 5 -17 3 -37 -5 -52 -18
-67 -17 -87 5 -16 18 -16 19 9 23 17 4 25 1 22 -6 -3 -8 8 -10 34 -8 21 2 36
8 33 13 -3 5 -2 9 3 10 4 0 19 2 33 5 17 3 21 1 11 -5 -11 -7 -10 -11 7 -20
11 -6 33 -11 48 -11 22 0 24 -3 15 -14 -10 -12 -8 -13 8 -9 12 3 21 8 21 12 0
12 -34 36 -92 63 -48 24 -65 27 -115 23 -32 -3 -66 -8 -75 -11 -19 -6 -58 32
-58 56 0 9 6 17 13 18 36 3 52 11 51 26 -2 24 12 20 48 -14 17 -16 27 -30 23
-30 -16 0 3 -11 36 -20 l34 -10 -42 36 c-41 34 -90 101 -81 110 3 2 20 -11 39
-31 41 -42 58 -46 29 -6 l-20 30 25 -3 c14 -1 28 -6 31 -9 10 -10 44 12 44 28
0 8 2 15 4 15 2 0 12 3 21 6 9 4 15 3 13 -2 -4 -15 33 -164 41 -164 4 0 4 30
-1 68 -4 37 -10 101 -13 142 l-5 75 24 -69 c14 -37 27 -71 31 -74 9 -10 -6 60
-27 121 -11 32 -17 61 -14 64 3 3 18 -5 35 -18 28 -23 47 -60 42 -86 -1 -7 5
-13 13 -13 14 0 36 -74 36 -125 0 -13 5 -27 10 -30 13 -8 13 26 -2 96 -9 46
-9 61 1 73 11 12 17 14 27 5 8 -6 14 -17 14 -24 0 -7 7 -18 16 -26 24 -19 35
6 17 41 -16 33 -8 80 13 80 8 0 14 10 14 23 0 16 5 11 20 -20 10 -24 24 -43
30 -43 13 0 13 16 -5 73 -8 26 -12 47 -9 47 3 0 42 -16 85 -35z m59 20 c0 -7
-30 -13 -34 -7 -3 4 4 9 15 9 10 1 19 0 19 -2z m15 -25 c3 -5 1 -10 -4 -10 -6
0 -11 5 -11 10 0 6 2 10 4 10 3 0 8 -4 11 -10z m100 -40 c16 -16 26 -30 23
-30 -7 0 -58 48 -58 55 0 9 6 5 35 -25z m165 16 c0 -2 -7 -9 -15 -16 -13 -11
-14 -10 -9 4 5 14 24 23 24 12z m-1069 -40 c0 5 4 0 9 -11 11 -29 -13 -53 -50
-47 -16 2 -30 6 -30 9 0 2 10 17 22 33 16 23 25 27 35 19 7 -6 13 -8 14 -3z
m114 -47 c9 -28 15 -53 12 -55 -6 -7 -69 5 -87 16 -10 6 -8 15 13 40 15 17 27
36 27 41 0 5 4 9 9 9 5 0 17 -23 26 -51z m125 -23 c0 -3 -4 -8 -10 -11 -5 -3
-10 -1 -10 4 0 6 5 11 10 11 6 0 10 -2 10 -4z m688 -30 c21 -18 52 -22 52 -5
0 5 5 7 10 4 15 -10 12 -23 -7 -28 -14 -4 -12 -5 5 -6 19 -1 21 -5 16 -28 -10
-40 -13 -43 -37 -43 -12 0 -28 -10 -36 -22 -14 -23 -14 -23 8 -4 32 29 33 15
1 -22 -15 -18 -52 -43 -81 -56 -30 -14 -47 -25 -39 -25 20 -1 88 35 120 63 14
12 32 22 40 21 43 -5 45 -6 25 -15 -19 -8 -19 -9 3 -9 12 -1 22 -7 22 -13 0
-9 3 -8 10 2 15 24 23 4 15 -37 -5 -21 -7 -43 -6 -50 1 -6 -3 -14 -9 -18 -5
-3 -10 -15 -10 -26 0 -11 -4 -18 -9 -14 -5 3 -12 1 -16 -5 -13 -21 -24 -9 -15
16 13 32 13 34 -2 34 -7 0 -28 -15 -47 -32 -19 -18 -29 -25 -22 -15 16 21 0
47 -30 47 -10 0 -21 5 -24 10 -4 6 -11 8 -16 5 -5 -4 -9 -2 -9 4 0 6 -16 -1
-36 -14 -53 -36 -76 -32 -34 5 25 22 29 30 15 26 -68 -17 -80 -18 -70 -7 6 6
28 20 50 30 36 18 37 20 15 21 -24 1 -24 1 5 15 l30 13 -49 1 c-57 1 -54 12 7
22 36 6 38 7 11 8 -22 1 -33 7 -37 20 -6 25 0 31 34 31 37 0 33 31 -6 47 -24
9 -26 12 -10 13 11 1 23 2 28 1 12 -2 8 17 -5 22 -7 2 5 8 27 13 37 7 38 8 15
16 -17 5 -9 7 28 4 30 -2 60 -10 70 -20z m415 3 c-5 -5 -20 -5 -33 -2 l-25 7
25 6 c28 8 46 2 33 -11z m-1340 4 c-7 -2 -21 -2 -30 0 -10 3 -4 5 12 5 17 0
24 -2 18 -5z m1220 -10 c-7 -2 -21 -2 -30 0 -10 3 -4 5 12 5 17 0 24 -2 18 -5z
m267 -129 c0 -8 -5 -12 -10 -9 -6 4 -8 11 -5 16 9 14 15 11 15 -7z m-27 -40
c-10 -7 -25 -13 -33 -13 -9 0 -6 5 8 11 12 6 22 15 22 20 0 5 5 6 11 3 6 -5 4
-12 -8 -21z m-896 -86 c-3 -8 -6 -5 -6 6 -1 11 2 17 5 13 3 -3 4 -12 1 -19z
m158 -58 c-3 -5 -12 -10 -18 -10 -7 0 -6 4 3 10 19 12 23 12 15 0z m602 -12
c-9 -5 -29 -5 -44 -1 l-28 7 25 6 c14 4 33 4 44 2 16 -4 16 -6 3 -14z m-869
-23 c-3 -3 -9 2 -12 12 -6 14 -5 15 5 6 7 -7 10 -15 7 -18z m797 16 c3 -5 1
-12 -5 -16 -5 -3 -10 1 -10 9 0 18 6 21 15 7z m-54 -81 c6 0 8 10 4 23 -5 18
-4 19 5 5 13 -21 2 -50 -18 -46 -9 2 -15 6 -14 11 1 4 3 17 3 30 l2 22 4 -22
c2 -13 9 -23 14 -23z"/>
<path d="M1400 1545 c0 -8 5 -15 10 -15 6 0 10 7 10 15 0 8 -4 15 -10 15 -5 0
-10 -7 -10 -15z"/>
<path d="M2120 1555 c-8 -9 -8 -15 -2 -15 12 0 26 19 19 26 -2 2 -10 -2 -17
-11z"/>
<path d="M2063 1553 c9 -2 23 -2 30 0 6 3 -1 5 -18 5 -16 0 -22 -2 -12 -5z"/>
<path d="M2038 1373 c7 -3 16 -2 19 1 4 3 -2 6 -13 5 -11 0 -14 -3 -6 -6z"/>
<path d="M2075 1340 c3 -5 8 -10 11 -10 2 0 4 5 4 10 0 6 -5 10 -11 10 -5 0
-7 -4 -4 -10z"/>
<path d="M2144 2153 c10 -11 36 -12 36 -2 0 5 -10 9 -22 9 -12 0 -18 -3 -14
-7z"/>
<path d="M2251 2083 c-1 -12 4 -25 9 -28 12 -7 12 2 0 30 -8 19 -9 19 -9 -2z"/>
<path d="M2380 2081 c0 -13 20 -25 45 -28 18 -3 17 -1 -5 17 -28 22 -40 25
-40 11z"/>
<path d="M2492 1975 c0 -11 3 -29 8 -40 11 -25 11 1 0 35 -6 20 -8 21 -8 5z"/>
<path d="M2541 1901 c-10 -7 -11 -16 -4 -37 13 -38 33 -43 33 -7 0 37 -12 54
-29 44z"/>
<path d="M2158 1823 c7 -3 16 -2 19 1 4 3 -2 6 -13 5 -11 0 -14 -3 -6 -6z"/>
<path d="M2750 1781 c0 -6 4 -11 9 -11 5 0 18 -15 30 -32 13 -22 21 -27 21
-16 0 9 -4 20 -10 23 -5 3 -10 16 -11 28 0 12 -3 16 -6 9 -4 -10 -8 -10 -19
-1 -10 8 -14 8 -14 0z"/>
<path d="M2670 1731 c0 -5 6 -13 13 -18 17 -14 58 -23 51 -12 -3 5 -14 9 -24
9 -23 0 -35 16 -18 23 8 3 6 6 -4 6 -10 1 -18 -3 -18 -8z"/>
<path d="M2735 1730 c-3 -6 1 -7 9 -4 18 7 21 14 7 14 -6 0 -13 -4 -16 -10z"/>
<path d="M2750 1710 c0 -5 5 -10 11 -10 5 0 7 5 4 10 -3 6 -8 10 -11 10 -2 0
-4 -4 -4 -10z"/>
<path d="M2457 1359 c7 -7 15 -10 18 -7 3 3 -2 9 -12 12 -14 6 -15 5 -6 -5z"/>
<path d="M1460 982 c0 -5 16 -27 36 -51 20 -23 34 -45 30 -48 -3 -4 -6 -2 -6
4 0 6 -9 13 -20 16 -11 3 -18 2 -16 -1 2 -4 -2 -12 -8 -18 -9 -9 -22 -8 -48 1
-31 10 -35 10 -31 -3 5 -12 2 -12 -16 -3 -12 7 -26 9 -32 6 -5 -4 -17 -1 -26
7 -12 9 -15 9 -9 1 5 -9 2 -11 -8 -7 -9 3 -16 10 -16 16 0 5 -5 6 -11 3 -5 -4
-24 -1 -40 5 -24 10 -38 10 -72 0 -23 -8 -47 -17 -54 -22 -6 -5 -24 -6 -40 -2
-40 9 -20 -8 44 -41 29 -14 73 -45 97 -68 59 -56 98 -87 113 -87 6 0 25 -13
41 -30 17 -16 39 -30 49 -30 10 0 36 -7 58 -15 51 -18 99 -20 89 -2 -6 9 -5 9
7 0 10 -8 42 -11 87 -10 63 3 75 6 101 31 35 33 34 34 75 -91 25 -76 49 -114
62 -100 10 10 -17 110 -42 154 -13 23 -24 55 -24 71 0 45 -10 65 -25 52 -9 -8
-14 -6 -19 5 -4 11 -2 14 6 9 8 -5 9 -2 5 9 -3 10 -2 17 4 17 6 0 6 7 -1 20
-6 11 -8 20 -4 20 3 0 1 7 -6 15 -7 8 -9 15 -6 15 12 0 -16 42 -56 86 -36 39
-69 60 -53 34 9 -15 -4 -12 -21 5 -9 8 -20 15 -26 15 -6 0 2 -13 18 -28 16
-15 32 -27 35 -25 7 3 27 -18 28 -29 1 -5 4 -8 9 -9 12 -1 42 -31 42 -42 0 -6
-6 -3 -13 8 -8 10 -18 15 -24 12 -5 -4 -23 7 -38 23 -31 32 -51 39 -41 15 4
-12 -2 -14 -37 -9 -34 4 -50 14 -87 54 -44 48 -60 59 -60 42z m-20 -116 c0
-11 -19 -15 -25 -6 -3 5 1 10 9 10 9 0 16 -2 16 -4z m300 -45 c0 -6 -4 -12 -8
-15 -5 -3 -9 1 -9 9 0 8 4 15 9 15 4 0 8 -4 8 -9z m-229 -144 c41 -34 20 -24
-36 16 -22 15 -43 38 -48 49 -6 16 -2 15 21 -8 16 -16 44 -42 63 -57z m145
-14 c-3 -4 4 -13 16 -20 16 -9 18 -12 7 -13 -9 0 -24 9 -34 20 -17 19 -17 20
0 20 10 0 15 -3 11 -7z m94 -23 c0 -5 -5 -10 -11 -10 -5 0 -7 5 -4 10 3 6 8
10 11 10 2 0 4 -4 4 -10z"/>
<path d="M1420 906 c0 -2 9 -6 20 -9 11 -3 18 -1 14 4 -5 9 -34 13 -34 5z"/>
<path d="M1680 900 c0 -5 5 -10 11 -10 5 0 7 5 4 10 -3 6 -8 10 -11 10 -2 0
-4 -4 -4 -10z"/>
<path d="M1805 845 c4 -17 11 -34 16 -39 5 -5 4 5 -1 24 -12 42 -24 55 -15 15z"/>
</g>
</svg>
